<?xml version="1.0" encoding="UTF-8"?>
<svg version="1.1" xmlns="http://www.w3.org/2000/svg" width="500" height="500">
<path d="M0 0 C1.83505803 1.57831206 3.64629561 3.18458914 5.4375 4.8125 C5.96230957 5.28816406 6.48711914 5.76382813 7.02783203 6.25390625 C24.89169396 22.65489249 38.04802548 45.97187702 39.61450195 70.59472656 C40.31431495 103.23779644 32.69636121 128.33100926 10.4375 152.8125 C9.83164062 153.50214844 9.22578125 154.19179687 8.6015625 154.90234375 C0.56994167 163.56589414 -10.86152817 170.93761283 -21.5625 175.8125 C-22.2225 175.8125 -22.8825 175.8125 -23.5625 175.8125 C-23.55789104 176.888876 -23.55328207 177.965252 -23.54853344 179.07424545 C-23.43743027 205.29068031 -23.35532126 231.50708456 -23.30343914 257.72370529 C-23.27768107 270.40198902 -23.24257612 283.08011702 -23.18530273 295.75830078 C-23.13539469 306.81136311 -23.10319158 317.86431264 -23.09205753 328.91748452 C-23.08555138 334.76759831 -23.07030959 340.61738943 -23.03384972 346.4673996 C-22.99977357 351.97988701 -22.98947059 357.49192051 -22.99696159 363.00450325 C-22.99559224 365.02163476 -22.98572952 367.03878232 -22.96647263 369.05582237 C-22.83569417 383.46763652 -24.1642861 395.82151381 -34.5625 406.8125 C-44.58334038 416.29289056 -56.12203506 418.56340367 -69.515625 418.30078125 C-70.91093666 418.29142807 -72.30626501 418.28432385 -73.70159912 418.27934265 C-77.33184061 418.26046876 -80.96104354 418.21154593 -84.59088135 418.15582275 C-88.31174426 418.10419947 -92.03278395 418.08146159 -95.75390625 418.05664062 C-103.02434752 418.00606716 -110.2919563 417.90816505 -117.5625 417.8125 C-117.5625 427.7125 -117.5625 437.6125 -117.5625 447.8125 C-107.0025 447.8125 -96.4425 447.8125 -85.5625 447.8125 C-85.5625 453.4225 -85.5625 459.0325 -85.5625 464.8125 C-163.4425 464.8125 -241.3225 464.8125 -321.5625 464.8125 C-321.5625 459.2025 -321.5625 453.5925 -321.5625 447.8125 C-311.0025 447.8125 -300.4425 447.8125 -289.5625 447.8125 C-289.5625 437.9125 -289.5625 428.0125 -289.5625 417.8125 C-293.91050781 417.85890625 -298.25851562 417.9053125 -302.73828125 417.953125 C-306.23298436 417.97889842 -309.72766016 418.00057195 -313.22240448 418.01950073 C-316.89627048 418.04051232 -320.56975965 418.06852903 -324.2434082 418.11425781 C-327.79016472 418.1581244 -331.33655877 418.18172168 -334.8835659 418.19200897 C-336.87695154 418.20285921 -338.87019393 418.23401824 -340.86335754 418.26568604 C-353.5899687 418.26878571 -363.11649313 414.92241963 -372.5625 406.3125 C-379.09535115 399.64171917 -383.69361303 390.61861057 -383.68275452 381.19342041 C-383.68412918 380.27077896 -383.68550385 379.34813751 -383.68692017 378.39753723 C-383.68152725 376.89026314 -383.68152725 376.89026314 -383.67602539 375.35253906 C-383.67617142 374.28881577 -383.67631744 373.22509247 -383.6764679 372.12913513 C-383.67577106 368.61211103 -383.66798933 365.09513985 -383.66015625 361.578125 C-383.65829126 359.14003529 -383.65686774 356.7019452 -383.65586853 354.26385498 C-383.65204976 347.84575364 -383.6422249 341.42767492 -383.63116455 335.00958252 C-383.6209367 328.46081854 -383.61636796 321.91205091 -383.61132812 315.36328125 C-383.60060209 302.5130093 -383.58301043 289.66276007 -383.5625 276.8125 C-399.0725 276.8125 -414.5825 276.8125 -430.5625 276.8125 C-430.53518799 273.41372559 -430.50787598 270.01495117 -430.47973633 266.51318359 C-430.39699798 255.20167994 -430.37522654 243.8905837 -430.38371754 232.57880211 C-430.38740705 225.72960952 -430.37121541 218.88162175 -430.30541992 212.03271484 C-430.24181551 205.40571312 -430.23731595 198.78025912 -430.26666832 192.15291214 C-430.2685514 189.64231082 -430.25161614 187.13161259 -430.21427345 184.6212883 C-429.96335138 166.58387972 -433.22536257 154.22336001 -442.5625 138.8125 C-443.52679085 137.18095009 -444.48119197 135.54350367 -445.42431641 133.89962769 C-445.83732498 133.19067289 -446.25033356 132.4817181 -446.67585754 131.75127983 C-448.4369661 127.90034564 -446.97674172 124.96340031 -445.62963867 121.22070312 C-445.2504126 120.35380859 -444.87118652 119.48691406 -444.48046875 118.59375 C-444.04927734 117.59472656 -443.61808594 116.59570312 -443.17382812 115.56640625 C-442.70396484 114.49261719 -442.23410156 113.41882813 -441.75 112.3125 C-440.74088722 109.96986928 -439.73448091 107.62607129 -438.73046875 105.28125 C-438.46998749 104.67313477 -438.20950623 104.06501953 -437.94113159 103.43847656 C-434.55628981 95.50244835 -431.39651866 87.47586714 -428.23901367 79.44726562 C-423.2341301 66.79844585 -417.8694962 54.35630921 -412.5625 41.8125 C-351.8425 41.8125 -291.1225 41.8125 -228.5625 41.8125 C-216.5625 70.8125 -216.5625 70.8125 -216.5625 72.8125 C-199.4025 72.8125 -182.2425 72.8125 -164.5625 72.8125 C-163.9025 67.2025 -163.2425 61.5925 -162.5625 55.8125 C-155.59619309 27.6793375 -137.12776645 6.11254577 -112.75 -8.9375 C-77.15463539 -28.79596657 -31.98212227 -25.23444907 0 0 Z " fill="#050506" transform="translate(453.5625,28.1875)"/>
<path d="M0 0 C13.53 0 27.06 0 41 0 C43.64 4.95 46.28 9.9 49 15 C51.92373598 19.15911738 54.79211536 23.08781136 58 27 C58.72058594 27.88558594 59.44117188 28.77117187 60.18359375 29.68359375 C72.1224194 43.66542699 88.63059246 52.61937081 106 58 C106.98097656 58.30808594 107.96195313 58.61617187 108.97265625 58.93359375 C115.18089164 60.75851808 120.29955967 61.32995597 127 62 C127 113.81 127 165.62 127 219 C39.22 219 -48.56 219 -139 219 C-139 198.54 -139 178.08 -139 157 C-103.03 157 -67.06 157 -30 157 C-30 172.51 -30 188.02 -30 204 C16.53 204 63.06 204 111 204 C111 162.75 111 121.5 111 79 C69.75 79 28.5 79 -14 79 C-14 33.8863676 -14 33.8863676 0 13 C2.08661617 8.82676766 0.8814494 4.407247 0 0 Z " fill="#6AD3EF" transform="translate(256,148)"/>
<path d="M0 0 C0.11687042 26.29514989 0.20500652 52.59026078 0.25906086 78.88561821 C0.28482783 91.09538334 0.31994982 103.30498697 0.37719727 115.51464844 C0.42707805 126.15824179 0.45930196 136.80171816 0.47044247 147.44542515 C0.47695323 153.07973981 0.49222447 158.71371983 0.52865028 164.34792709 C0.56268333 169.65521896 0.57303807 174.96203953 0.56553841 180.26943016 C0.56690967 182.21322506 0.57679833 184.15703634 0.59602737 186.10073662 C0.70316086 197.49234877 0.58044644 206.2905615 -7.02734375 215.4375 C-15.40919008 222.29381602 -19.23679829 222 -31 222 C-31 211.77 -31 201.54 -31 191 C-66.97 191 -102.94 191 -140 191 C-140 201.23 -140 211.46 -140 222 C-162.0270858 222.0903319 -184.05402137 222.16400044 -206.08124542 222.20724869 C-216.30911394 222.2278643 -226.5368591 222.25596584 -236.76464844 222.30175781 C-245.6803297 222.34165614 -254.59592161 222.36744009 -263.51168966 222.37635398 C-268.23152319 222.38156364 -272.95110113 222.39378746 -277.67085266 222.42292023 C-282.11629438 222.45013664 -286.56137603 222.45843244 -291.00689316 222.45243073 C-292.63546075 222.45352818 -294.2640408 222.46144502 -295.89253616 222.4768219 C-305.36016212 222.56180903 -312.75188831 222.58861447 -320.20703125 216.0703125 C-320.73683594 215.42835938 -321.26664062 214.78640625 -321.8125 214.125 C-322.35519531 213.48820313 -322.89789063 212.85140625 -323.45703125 212.1953125 C-327.92680557 205.83578549 -328.42317276 200.97313092 -328.34057617 193.40478516 C-328.34101425 192.35052338 -328.34145233 191.2962616 -328.34190369 190.21005249 C-328.33981888 186.73619874 -328.31650169 183.26283162 -328.29296875 179.7890625 C-328.28737172 177.3762539 -328.28310213 174.96344189 -328.28010559 172.55062866 C-328.26866535 166.20809474 -328.23920491 159.86576774 -328.20599365 153.52331543 C-328.17527527 147.04812418 -328.16159645 140.57289941 -328.14648438 134.09765625 C-328.11433469 121.39834671 -328.06314799 108.69919058 -328 96 C-322.72 96 -317.44 96 -312 96 C-311.9906543 98.02326416 -311.98130859 100.04652832 -311.97167969 102.13110352 C-311.93783921 108.83278987 -311.88225127 115.53417057 -311.81609726 122.23561192 C-311.77666921 126.29682033 -311.74445807 130.35781344 -311.72900391 134.41918945 C-311.71380615 138.34223936 -311.6793064 142.26469719 -311.63169098 146.18748283 C-311.61690911 147.68045834 -311.60896082 149.1735184 -311.60811615 150.66656685 C-311.89411031 161.63441238 -311.89411031 161.63441238 -307 171 C-300.97880616 174.3542794 -295.66795933 174.42493857 -288.87242126 174.38095093 C-287.20371053 174.38797089 -287.20371053 174.38797089 -285.50128847 174.39513266 C-281.77799966 174.40708733 -278.05507858 174.39762326 -274.33178711 174.38818359 C-271.66070991 174.39224906 -268.98965795 174.39748235 -266.31858826 174.40411377 C-259.81969621 174.41744092 -253.32090821 174.41457806 -246.82201212 174.40587585 C-241.53999426 174.39909627 -236.25800553 174.39818376 -230.97598457 174.4014473 C-229.84765834 174.40213684 -229.84765834 174.40213684 -228.69653763 174.40284032 C-227.16835875 174.40379951 -225.64017988 174.40477215 -224.11200101 174.4057581 C-209.78876143 174.41430885 -195.46557949 174.40448249 -181.14234937 174.388357 C-168.85455498 174.37495136 -156.5668456 174.37728453 -144.27905273 174.39111328 C-130.00495506 174.40716994 -115.73090787 174.41348779 -101.45680243 174.40427649 C-99.93460151 174.40332085 -98.41240059 174.40237774 -96.89019966 174.4014473 C-96.14127086 174.40098447 -95.39234205 174.40052164 -94.62071843 174.40004479 C-89.34503813 174.39745536 -84.06938987 174.40182482 -78.79371452 174.40888596 C-72.36451309 174.41730199 -65.93542153 174.41501858 -59.50623267 174.39904372 C-56.22646206 174.39116273 -52.94691234 174.38968299 -49.66713715 174.39799118 C-46.11143948 174.40616894 -42.55625963 174.39592996 -39.00059509 174.38095093 C-37.96450904 174.38764309 -36.92842299 174.39433526 -35.8609404 174.40123022 C-30.49063498 174.35724254 -26.61581384 174.06677248 -22 171 C-17.6065983 166.25037654 -16.87639174 162.8804842 -16.84178162 156.52705383 C-16.83437465 155.53703103 -16.83437465 155.53703103 -16.82681805 154.52700776 C-16.81143764 152.31138337 -16.80308098 150.09578798 -16.79467773 147.88012695 C-16.78509964 146.29349512 -16.77508959 144.70686585 -16.76467896 143.12023926 C-16.73761644 138.80858728 -16.71661416 134.49692433 -16.69667697 130.18523431 C-16.67482574 125.68085747 -16.64743283 121.17651447 -16.62062073 116.67216492 C-16.57068217 108.14057681 -16.52574765 99.60896993 -16.48259836 91.07734507 C-16.43323593 81.36522515 -16.37831411 71.65313917 -16.32291877 61.94105208 C-16.20908087 41.96073301 -16.10224576 21.98038153 -16 2 C-13.52093719 1.66587842 -11.04175822 1.33266565 -8.5625 1 C-7.85544922 0.90460938 -7.14839844 0.80921875 -6.41992188 0.7109375 C-1.11328125 0 -1.11328125 0 0 0 Z " fill="#C8CCD4" transform="translate(414,208)"/>
<path d="M0 0 C0.66 0 1.32 0 2 0 C3.51012131 2.76543196 5.00630148 5.53816807 6.5 8.3125 C6.92925781 9.09818359 7.35851562 9.88386719 7.80078125 10.69335938 C8.20683594 11.45068359 8.61289063 12.20800781 9.03125 12.98828125 C9.59682617 14.03302612 9.59682617 14.03302612 10.17382812 15.09887695 C11 17 11 17 11 20 C39.215 19.505 39.215 19.505 68 19 C71.3 12.73 74.6 6.46 78 0 C81 1 81 1 82.07495117 2.53466797 C82.39439697 3.18064941 82.71384277 3.82663086 83.04296875 4.4921875 C83.39423828 5.19730469 83.74550781 5.90242187 84.10742188 6.62890625 C84.46384766 7.37011719 84.82027344 8.11132812 85.1875 8.875 C85.55552734 9.60847656 85.92355469 10.34195313 86.30273438 11.09765625 C89 16.59227157 89 16.59227157 89 20 C103.85 20 118.7 20 134 20 C134 51.02 134 82.04 134 114 C102.98 114 71.96 114 40 114 C40 88.26 40 62.52 40 36 C14.26 36 -11.48 36 -38 36 C-38 61.74 -38 87.48 -38 114 C-43.28 114 -48.56 114 -54 114 C-54 82.98 -54 51.96 -54 20 C-39.48 19.67 -24.96 19.34 -10 19 C-6.7 12.73 -3.4 6.46 0 0 Z " fill="#E0E3E7" transform="translate(93,175)"/>
<path d="M0 0 C36.3 0 72.6 0 110 0 C110 31.02 110 62.04 110 94 C73.7 94 37.4 94 0 94 C0 62.98 0 31.96 0 0 Z " fill="#F9806D" transform="translate(242,242)"/>
<path d="M0 0 C46.86 0 93.72 0 142 0 C142 10.56 142 21.12 142 32 C95.14 32 48.28 32 0 32 C0 21.44 0 10.88 0 0 Z " fill="#A4ACB6" transform="translate(179,445)"/>
<path d="M0 0 C20.46 0 40.92 0 62 0 C62 20.46 62 40.92 62 62 C41.54 62 21.08 62 0 62 C0 41.54 0 21.08 0 0 Z " fill="#000102" transform="translate(149,211)"/>
<path d="M0 0 C15.84 0 31.68 0 48 0 C47.30077771 5.59377834 46.50909113 9.75464609 45 15 C44.1475875 19.33332528 43.4690835 23.69739181 42.76367188 28.05664062 C40.85594474 39.46342401 38.36692973 50.63873729 36 62 C16.53 62 -2.94 62 -23 62 C-23 56.41665848 -22.5353821 54.13613243 -20.47265625 49.1875 C-20.20817184 48.54450958 -19.94368744 47.90151917 -19.67118835 47.23904419 C-18.81140298 45.15515523 -17.93713622 43.07769385 -17.0625 41 C-16.46741685 39.56535895 -15.87334747 38.13029699 -15.28027344 36.69482422 C-14.0911315 33.82014257 -12.89671959 30.9477462 -11.69775391 28.07714844 C-9.34622841 22.44096027 -7.05019676 16.78227974 -4.75 11.125 C-4.03760312 9.37713713 -3.32417882 7.62969241 -2.609375 5.8828125 C-2.32030273 5.17527832 -2.03123047 4.46774414 -1.73339844 3.73876953 C-1.19953638 2.47306861 -0.61433013 1.22866026 0 0 Z " fill="#FB816D" transform="translate(52,86)"/>
<path d="M0 0 C15.84 0 31.68 0 48 0 C57.19382022 21.83532303 57.19382022 21.83532303 61.25 32.0625 C61.65734375 33.08537109 62.0646875 34.10824219 62.484375 35.16210938 C64.0418293 39.07321657 65.59714528 42.9851686 67.15039062 46.89794922 C67.50810547 47.79658691 67.86582031 48.69522461 68.234375 49.62109375 C68.70955566 50.81690063 68.70955566 50.81690063 69.19433594 52.03686523 C69.98332726 54.0284401 69.98332726 54.0284401 71 56 C71 57.98 71 59.96 71 62 C51.53 62 32.06 62 12 62 C7.6875 40.875 7.6875 40.875 6.34643555 34.30029297 C5.98495996 32.53090473 5.62339163 30.76153543 5.26171875 28.9921875 C5.06873703 28.04624725 4.87575531 27.10030701 4.67692566 26.1257019 C3.34501437 19.61860089 1.95340637 13.12819814 0.49145508 6.64892578 C0 4 0 4 0 0 Z " fill="#FC816D" transform="translate(166,86)"/>
<path d="M0 0 C15.51 0 31.02 0 47 0 C47 20.79 47 41.58 47 63 C31.49 63 15.98 63 0 63 C0 42.21 0 21.42 0 0 Z " fill="#CB9B75" transform="translate(70,226)"/>
<path d="M0 0 C11.55 0 23.1 0 35 0 C43.07592343 38.0078047 43.07592343 38.0078047 45.5 50.6875 C45.73928223 51.92922974 45.73928223 51.92922974 45.98339844 53.19604492 C46.54313814 56.17863021 47 58.95791629 47 62 C27.86 62 8.72 62 -11 62 C-9.89189189 50.91891892 -9.89189189 50.91891892 -8.625 46.0625 C-7.32754683 40.70972218 -6.37929737 35.37836157 -5.5625 29.9375 C-4.04949573 19.88089399 -2.04883197 9.96156234 0 0 Z " fill="#FCE8A7" transform="translate(115,86)"/>
<path d="M0 0 C0.97484848 0.00222061 1.94969696 0.00444122 2.9540863 0.00672913 C4.05515213 0.00680466 5.15621796 0.00688019 6.29064941 0.00695801 C8.08749428 0.01469994 8.08749428 0.01469994 9.92063904 0.02259827 C11.14000656 0.02401321 12.35937408 0.02542816 13.61569214 0.02688599 C17.52856349 0.03250485 21.4413786 0.04506055 25.35423279 0.05775452 C27.99941426 0.06276709 30.64459662 0.06733041 33.28977966 0.07142639 C39.79045005 0.08248041 46.2910874 0.09923688 52.79173279 0.12025452 C55.89633645 10.99613025 56.17809888 20.46121022 56.79173279 32.12025452 C36.00173279 32.12025452 15.21173279 32.12025452 -6.20826721 32.12025452 C-6.20826721 20.85894459 -6.20826721 20.85894459 -5.58717346 16.58509827 C-5.45633362 15.67437561 -5.32549377 14.76365295 -5.19068909 13.82533264 C-5.05211487 12.91203186 -4.91354065 11.99873108 -4.77076721 11.05775452 C-4.63606018 10.10964905 -4.50135315 9.16154358 -4.36256409 8.18470764 C-3.18528388 0.17345943 -3.18528388 0.17345943 0 0 Z " fill="#4FBFE7" transform="translate(365.20826721191406,69.87974548339844)"/>
<path d="M0 0 C20.46 0 40.92 0 62 0 C62 9.00675219 62 9.00675219 61.37890625 13.05078125 C61.24806641 13.91380859 61.11722656 14.77683594 60.98242188 15.66601562 C60.77456055 16.97602539 60.77456055 16.97602539 60.5625 18.3125 C60.42779297 19.20517578 60.29308594 20.09785156 60.15429688 21.01757812 C59.62124585 24.47330894 59.10826101 27.67521698 58 31 C39.85 31 21.7 31 3 31 C-0.5714598 20.2856206 0 11.62111673 0 0 Z " fill="#4FBFE8" transform="translate(360,117)"/>
<path d="M0 0 C2.53395389 1.16150496 4.14892199 2.7475039 6.10494995 4.7252655 C7.16455933 5.77327332 7.16455933 5.77327332 8.24557495 6.842453 C9.85494995 8.8502655 9.85494995 8.8502655 9.85494995 11.8502655 C8.39498901 13.38883972 8.39498901 13.38883972 6.37057495 15.029953 C1.87830823 18.79593695 -2.26365947 22.82031186 -6.39505005 26.9752655 C-7.08856567 27.66491394 -7.7820813 28.35456238 -8.49661255 29.06510925 C-11.94176229 32.5168589 -15.16829949 35.97698771 -18.14505005 39.8502655 C-21.34398224 43.22211294 -24.73052862 46.26085149 -28.30130005 49.2252655 C-30.69123505 51.3316489 -32.90390984 53.58618964 -35.14505005 55.8502655 C-36.1700508 56.86564028 -37.19613293 57.87992435 -38.22317505 58.89323425 C-39.28048928 59.94138858 -40.33778072 60.98956589 -41.39505005 62.0377655 C-41.9364563 62.57079285 -42.47786255 63.10382019 -43.03567505 63.65299988 C-45.95262106 66.47534087 -45.95262106 66.47534087 -48.14505005 69.8502655 C-49.13505005 69.8502655 -50.12505005 69.8502655 -51.14505005 69.8502655 C-52.32814829 68.46435043 -53.50240877 67.06952278 -54.62161255 65.6315155 C-56.33578081 63.62725723 -58.19644901 61.99234185 -60.20755005 60.2877655 C-63.25361625 57.700617 -65.71073734 55.03359751 -68.14505005 51.8502655 C-68.80505005 51.5202655 -69.46505005 51.1902655 -70.14505005 50.8502655 C-69.5745134 47.07791122 -67.97861584 45.223105 -65.33255005 42.5377655 C-64.64547974 41.81975769 -63.95840942 41.10174988 -63.2505188 40.36198425 C-61.14505005 38.8502655 -61.14505005 38.8502655 -59.07473755 38.90104675 C-56.74494848 40.0470766 -55.6597659 41.29778194 -54.08255005 43.3502655 C-52.02254815 46.01679317 -51.45604703 46.74659984 -48.14505005 47.8502655 C-47.90172943 47.28326431 -47.65840881 46.71626312 -47.40771484 46.13208008 C-45.90629111 43.4187942 -44.12081597 41.54992677 -41.94241333 39.3412323 C-41.07456207 38.45739365 -40.20671082 37.57355499 -39.31256104 36.66293335 C-38.36397499 35.70797317 -37.4148969 34.75350153 -36.46536255 33.79948425 C-35.49123695 32.81638972 -34.51718817 31.83321905 -33.54321289 30.84997559 C-31.50420674 28.79450781 -29.46087266 26.7434495 -27.41506958 24.69474792 C-24.79133213 22.06560765 -22.18415938 19.42066473 -19.58061409 16.77154827 C-17.57647227 14.73771808 -15.56122388 12.71518058 -13.54269028 10.69564247 C-12.57611607 9.7248551 -11.61367426 8.74993532 -10.65546036 7.770895 C-9.31764546 6.40632265 -7.96244127 5.05886389 -6.60647583 3.71232605 C-5.83973541 2.94051498 -5.072995 2.16870392 -4.28302002 1.37350464 C-2.14505005 -0.1497345 -2.14505005 -0.1497345 0 0 Z " fill="#090303" transform="translate(323.1450500488281,253.1497344970703)"/>
<path d="M0 0 C25.74 0 51.48 0 78 0 C78 5.28 78 10.56 78 16 C52.26 16 26.52 16 0 16 C0 10.72 0 5.44 0 0 Z " fill="#020608" transform="translate(133,320)"/>
<path d="M0 0 C1.38077722 0.00063163 2.76165774 0.02313659 4.1418457 0.06347656 C4.87007034 0.06913635 5.59829498 0.07479614 6.34858704 0.08062744 C8.67227194 0.10300128 10.99440902 0.15319488 13.31762695 0.20410156 C14.89377654 0.22416547 16.46995032 0.24241644 18.04614258 0.25878906 C21.90806619 0.30286873 25.76883425 0.37189931 29.63012695 0.45410156 C29.31840776 3.91250573 29.00560446 7.37081106 28.69262695 10.82910156 C28.60561523 11.79460937 28.51860352 12.76011719 28.42895508 13.75488281 C28.34194336 14.71523437 28.25493164 15.67558594 28.1652832 16.66503906 C28.08673096 17.53435059 28.00817871 18.40366211 27.92724609 19.29931641 C27.51409697 23.68609782 27.06855962 28.06977491 26.63012695 32.45410156 C13.76012695 32.45410156 0.89012695 32.45410156 -12.36987305 32.45410156 C-12.36987305 19.45410156 -12.36987305 19.45410156 -10.36987305 15.45410156 C-9.87487305 13.72160156 -9.87487305 13.72160156 -9.36987305 11.95410156 C-8.56724445 9.14490147 -7.83107111 6.94673355 -6.36987305 4.45410156 C-6.00788818 3.76477539 -5.64590332 3.07544922 -5.27294922 2.36523438 C-3.36987305 0.45410156 -3.36987305 0.45410156 0 0 Z " fill="#4EC0E8" transform="translate(317.369873046875,69.5458984375)"/>
<path d="M0 0 C10.56 0 21.12 0 32 0 C37.96300407 11.92600814 41 19.1312959 41 32 C28.13 32 15.26 32 2 32 C1.67 28.205 1.34 24.41 1 20.5 C0.89558594 19.31986328 0.79117187 18.13972656 0.68359375 16.92382812 C0.60238281 15.96927734 0.52117187 15.01472656 0.4375 14.03125 C0.35371094 13.06767578 0.26992188 12.10410156 0.18359375 11.11132812 C-0.03460954 7.41347882 0 3.7042816 0 0 Z " fill="#4EBEE4" transform="translate(435,70)"/>
<path d="M0 0 C12.87 0 25.74 0 39 0 C39.495 4.3725 39.99 8.745 40.5 13.25 C40.65662109 14.62317383 40.81324219 15.99634766 40.97460938 17.41113281 C41.09642578 18.49749023 41.21824219 19.58384766 41.34375 20.703125 C41.46943359 21.81333008 41.59511719 22.92353516 41.72460938 24.06738281 C42 27 42 27 42 31 C31.11 31 20.22 31 9 31 C3.21678636 19.43357271 3.21678636 19.43357271 1.6875 12.6875 C1.51927734 12.01138672 1.35105469 11.33527344 1.17773438 10.63867188 C0.28739387 6.91377793 0 3.88324104 0 0 Z " fill="#50BBE1" transform="translate(305,117)"/>
<path d="M0 0 C12.87 0 25.74 0 39 0 C37.85857461 10.27282851 37.85857461 10.27282851 36.6875 14.9375 C36.35298828 16.31228516 36.35298828 16.31228516 36.01171875 17.71484375 C34.61867281 22.23820912 32.75779687 26.60550783 31 31 C20.11 31 9.22 31 -2 31 C-1.34 20.77 -0.68 10.54 0 0 Z " fill="#4FBEE6" transform="translate(437,117)"/>
<path d="M0 0 C9.35047575 4.53773088 15.26876128 14.69894115 19 24 C19.66 26.64 20.32 29.28 21 32 C5.49 32 -10.02 32 -26 32 C-22.62925882 20.76419606 -15.38257585 -1.81683967 0 0 Z " fill="#4FBDE4" transform="translate(393,23)"/>
<path d="M0 0 C20.46 0 40.92 0 62 0 C62 5.28 62 10.56 62 16 C41.54 16 21.08 16 0 16 C0 10.72 0 5.44 0 0 Z " fill="#010609" transform="translate(258,195)"/>
<path d="M0 0 C15.51 0 31.02 0 47 0 C39 24 39 24 28.5 30.5625 C24.13827913 31.32580115 20.49950475 30.62174587 16.4375 28.9375 C7.60940863 21.92029917 3.00620776 10.52172716 0 0 Z " fill="#4FBEE5" transform="translate(367,164)"/>
<path d="M0 0 C10.23 0 20.46 0 31 0 C31 10.23 31 20.46 31 31 C20.77 31 10.54 31 0 31 C0 20.77 0 10.54 0 0 Z " fill="#51BDE3" transform="translate(164,227)"/>
<path d="M0 0 C17.16 0 34.32 0 52 0 C49.36 5.28 46.72 10.56 44 16 C31.79 16 19.58 16 7 16 C0 3 0 3 0 0 Z " fill="#F46C51" transform="translate(29,164)"/>
<path d="M0 0 C15.51 0 31.02 0 47 0 C47.66 5.28 48.32 10.56 49 16 C34.81 16 20.62 16 6 16 C0 2 0 2 0 0 Z " fill="#C8CCD5" transform="translate(243,117)"/>
<path d="M0 0 C17.16 0 34.32 0 52 0 C49.69 5.28 47.38 10.56 45 16 C32.46 16 19.92 16 7 16 C0 2 0 2 0 0 Z " fill="#F4D16E" transform="translate(107,164)"/>
<path d="M0 0 C17.16 0 34.32 0 52 0 C49.69 5.28 47.38 10.56 45 16 C32.46 16 19.92 16 7 16 C0 2 0 2 0 0 Z " fill="#F96D52" transform="translate(185,164)"/>
<path d="M0 0 C8.58 0 17.16 0 26 0 C29.3 7.7 29.3 7.7 30.4375 11.4375 C31.45469843 14.59730789 32.66879005 17.48564122 34.1875 20.4375 C36 24 36 24 36 26 C22.03856547 21.95853211 8.66308427 12.72064342 0 1 C0 0.67 0 0.34 0 0 Z " fill="#50BCE2" transform="translate(325,164)"/>
<path d="M0 0 C-1.70058998 4.36510884 -3.66318234 8.56847216 -5.68359375 12.79296875 C-7.44231031 17.07755718 -8.66914859 21.56382863 -10 26 C-18.58 26 -27.16 26 -36 26 C-32.19245878 18.38491755 -25.93506343 14.06719831 -19.0625 9.3125 C-18.39460449 8.84900146 -17.72670898 8.38550293 -17.03857422 7.90795898 C-5.3651237 0 -5.3651237 0 0 0 Z " fill="#4FB7DB" transform="translate(361,29)"/>
<path d="M0 0 C7.14119429 1.42823886 12.98626853 5.03710167 18.875 9.125 C19.92010742 9.84707642 19.92010742 9.84707642 20.98632812 10.58374023 C26.51955656 14.49110027 31.76937157 18.65295573 36 24 C36 24.66 36 25.32 36 26 C27.42 26 18.84 26 10 26 C9.46375 24.123125 8.9275 22.24625 8.375 20.3125 C6.20013318 13.19333165 3.27847159 6.6771538 0 0 Z " fill="#4FBFE7" transform="translate(420,29)"/>
<path d="M0 0 C8.25 0 16.5 0 25 0 C19.91021373 8.48297711 12.66668247 13.86694657 4.3125 18.9375 C3.38679199 19.50355957 3.38679199 19.50355957 2.44238281 20.08105469 C-1.61628982 22.45818436 -5.43097319 23.87973797 -10 25 C-8.25229428 19.53377148 -6.34228363 14.24671534 -4 9 C-2.68 6.03 -1.36 3.06 0 0 Z " fill="#4FBDE3" transform="translate(431,164)"/>
<path d="M0 0 C0.97484848 0.00222061 1.94969696 0.00444122 2.9540863 0.00672913 C4.05515213 0.00680466 5.15621796 0.00688019 6.29064941 0.00695801 C8.08749428 0.01469994 8.08749428 0.01469994 9.92063904 0.02259827 C11.14000656 0.02401321 12.35937408 0.02542816 13.61569214 0.02688599 C17.52856349 0.03250485 21.4413786 0.04506055 25.35423279 0.05775452 C27.99941426 0.06276709 30.64459662 0.06733041 33.28977966 0.07142639 C39.79045005 0.08248041 46.2910874 0.09923688 52.79173279 0.12025452 C55.89633645 10.99613025 56.17809888 20.46121022 56.79173279 32.12025452 C36.00173279 32.12025452 15.21173279 32.12025452 -6.20826721 32.12025452 C-6.20826721 20.85894459 -6.20826721 20.85894459 -5.58717346 16.58509827 C-5.45633362 15.67437561 -5.32549377 14.76365295 -5.19068909 13.82533264 C-5.05211487 12.91203186 -4.91354065 11.99873108 -4.77076721 11.05775452 C-4.63606018 10.10964905 -4.50135315 9.16154358 -4.36256409 8.18470764 C-3.18528388 0.17345943 -3.18528388 0.17345943 0 0 Z M-0.20826721 2.12025452 C-0.86826721 4.10025452 -1.52826721 6.08025452 -2.20826721 8.12025452 C-2.53826721 8.45025452 -2.86826721 8.78025452 -3.20826721 9.12025452 C-3.53826721 16.38025452 -3.86826721 23.64025452 -4.20826721 31.12025452 C15.59173279 31.12025452 35.39173279 31.12025452 55.79173279 31.12025452 C55.29673279 29.14025452 55.29673279 29.14025452 54.79173279 27.12025452 C54.5677959 23.63679175 54.40115853 20.15899568 54.27415466 16.67103577 C54.23999451 15.9478717 54.20583435 15.22470764 54.17063904 14.47962952 C54.14558289 13.834776 54.12052673 13.18992249 54.0947113 12.52552795 C53.65074904 9.00101849 52.65330691 5.56655101 51.79173279 2.12025452 C34.63173279 2.12025452 17.47173279 2.12025452 -0.20826721 2.12025452 Z " fill="#428EAA" transform="translate(365.20826721191406,69.87974548339844)"/>
<path d="M0 0 C5.28 0 10.56 0 16 0 C16 5.28 16 10.56 16 16 C10.72 16 5.44 16 0 16 C0 10.72 0 5.44 0 0 Z " fill="#FBD670" transform="translate(289,414)"/>
<path d="M0 0 C5.28 0 10.56 0 16 0 C16 5.28 16 10.56 16 16 C10.72 16 5.44 16 0 16 C0 10.72 0 5.44 0 0 Z " fill="#FBD670" transform="translate(351,414)"/>
<path d="M0 0 C5.28 0 10.56 0 16 0 C16 5.28 16 10.56 16 16 C10.72 16 5.44 16 0 16 C0 10.72 0 5.44 0 0 Z " fill="#EDCC6F" transform="translate(320,414)"/>
<path d="M0 0 C20.46 0 40.92 0 62 0 C62 5.51738922 61.87401535 9.75590789 61 15 C60.67 15 60.34 15 60 15 C60 10.71 60 6.42 60 2 C40.53 2 21.06 2 1 2 C0.55946444 15.97989356 0.55946444 15.97989356 6 29 C8.26267725 29.33085773 8.26267725 29.33085773 10.90869141 29.31884766 C11.92959869 29.33871735 12.95050598 29.35858704 14.00234985 29.37905884 C15.10759003 29.39061005 16.2128302 29.40216125 17.3515625 29.4140625 C19.04531509 29.44311172 19.04531509 29.44311172 20.77328491 29.4727478 C24.39044572 29.53267069 28.00763813 29.57898002 31.625 29.625 C34.07293078 29.66316805 36.52084796 29.70221908 38.96875 29.7421875 C44.97904624 29.83838259 50.98942393 29.92339265 57 30 C57.04898438 29.22914063 57.09796875 28.45828125 57.1484375 27.6640625 C57.22320312 26.66117188 57.29796875 25.65828125 57.375 24.625 C57.44460938 23.62726563 57.51421875 22.62953125 57.5859375 21.6015625 C58 19 58 19 60 17 C59.85866501 18.77119803 59.71176792 20.54195287 59.5625 22.3125 C59.48128906 23.29863281 59.40007812 24.28476563 59.31640625 25.30078125 C59 28 59 28 58 31 C39.85 31 21.7 31 3 31 C-0.5714598 20.2856206 0 11.62111673 0 0 Z " fill="#54A5BF" transform="translate(360,117)"/>
<path d="M0 0 C10.89 0 21.78 0 33 0 C32.690625 3.42375 32.38125 6.8475 32.0625 10.375 C31.96718994 11.43251465 31.87187988 12.4900293 31.77368164 13.57958984 C31.65561157 14.88210693 31.65561157 14.88210693 31.53515625 16.2109375 C31.456604 17.08024902 31.37805176 17.94956055 31.29711914 18.84521484 C30.88397002 23.23199626 30.43843267 27.61567335 30 32 C17.13 32 4.26 32 -9 32 C-9 19 -9 19 -7 15 C-6.505 13.2675 -6.505 13.2675 -6 11.5 C-5.20946936 8.73314277 -4.39390144 6.48910971 -3 4 C-1.7299786 7.81006421 -2.53199649 9.23541017 -3.8125 13 C-5.88241401 19.09765282 -6.80712423 24.43918328 -8 31 C4.21 31 16.42 31 29 31 C28.96073094 24.44917502 28.96073094 24.44917502 28.90991211 17.8984375 C28.90741455 17.06570312 28.90491699 16.23296875 28.90234375 15.375 C28.89710693 14.53710938 28.89187012 13.69921875 28.88647461 12.8359375 C29.03171084 9.20784283 29.54962982 5.60296145 30 2 C15.15 1.505 15.15 1.505 0 1 C0 0.67 0 0.34 0 0 Z " fill="#499AB4" transform="translate(314,70)"/>
<path d="M0 0 C17.16 0 34.32 0 52 0 C49.69 5.28 47.38 10.56 45 16 C32.46 16 19.92 16 7 16 C6.67 14.68 6.34 13.36 6 12 C6.66 12 7.32 12 8 12 C8 12.66 8 13.32 8 14 C25.325 13.505 25.325 13.505 43 13 C43.66 11.35 44.32 9.7 45 8 C44.34 8 43.68 8 43 8 C43 7.34 43 6.68 43 6 C43.99 6 44.98 6 46 6 C46.33 4.68 46.66 3.36 47 2 C31.49 2 15.98 2 0 2 C0 1.34 0 0.68 0 0 Z " fill="#D46852" transform="translate(185,164)"/>
<path d="M0 0 C0.33 0 0.66 0 1 0 C1.1081866 2.58445773 1.18737237 5.16437352 1.25 7.75 C1.30027344 8.84441406 1.30027344 8.84441406 1.3515625 9.9609375 C1.41902625 13.67144375 1.34327652 15.57156961 -1.015625 18.515625 C-1.67046875 19.00546875 -2.3253125 19.4953125 -3 20 C-3 19.34 -3 18.68 -3 18 C-20.82 18 -38.64 18 -57 18 C-57 17.34 -57 16.68 -57 16 C-38.85 16 -20.7 16 -2 16 C-1.34 10.72 -0.68 5.44 0 0 Z " fill="#0F2934" transform="translate(420,132)"/>
<path d="M0 0 C7.36877496 1.47375499 13.3529187 5.30258527 19.4375 9.5 C20.53481445 10.22896484 20.53481445 10.22896484 21.65429688 10.97265625 C22.68973633 11.68228516 22.68973633 11.68228516 23.74609375 12.40625 C24.37185303 12.83228516 24.9976123 13.25832031 25.64233398 13.69726562 C26.09036377 14.12716797 26.53839355 14.55707031 27 15 C27 15.99 27 16.98 27 18 C26.67 17.34 26.34 16.68 26 16 C24.35 16.33 22.7 16.66 21 17 C20.95875 16.401875 20.9175 15.80375 20.875 15.1875 C19.54382239 11.85955597 17.19789325 11.37948336 14 10 C12.68 9.34 11.36 8.68 10 8 C10 12.29 10 16.58 10 21 C7.76616331 17.64924496 6.12048535 14.14357652 4.4375 10.5 C4.12103516 9.82324219 3.80457031 9.14648438 3.47851562 8.44921875 C2.18195846 5.65790459 0.97411276 2.92233828 0 0 Z " fill="#52B4D4" transform="translate(420,29)"/>
<path d="M0 0 C8.58 0 17.16 0 26 0 C29.3 7.7 29.3 7.7 30.4375 11.4375 C31.45469843 14.59730789 32.66879005 17.48564122 34.1875 20.4375 C36 24 36 24 36 26 C30.38014179 24.37319894 25.04233913 21.96273034 20 19 C19.67 18.34 19.34 17.68 19 17 C22.3 17.66 25.6 18.32 29 19 C28.5359375 16.8034375 28.5359375 16.8034375 28.0625 14.5625 C27.88847656 13.73878906 27.71445312 12.91507813 27.53515625 12.06640625 C27.19247006 10.02338796 27.19247006 10.02338796 26 9 C25.67 6.69 25.34 4.38 25 2 C18.07 1.67 11.14 1.34 4 1 C4.33 2.65 4.66 4.3 5 6 C3.31237149 4.3545622 1.6459651 2.68711423 0 1 C0 0.67 0 0.34 0 0 Z " fill="#54B3D4" transform="translate(325,164)"/>
<path d="M0 0 C0.495 1.98 0.495 1.98 1 4 C-2.23225244 4.96203378 -5.13703194 5.12124534 -8.50292969 5.11352539 C-9.60376892 5.11344986 -10.70460815 5.11337433 -11.83880615 5.11329651 C-13.02121887 5.10813522 -14.20363159 5.10297394 -15.421875 5.09765625 C-16.63699768 5.0962413 -17.85212036 5.09482635 -19.10406494 5.09336853 C-22.98606831 5.08776988 -26.86801406 5.0752176 -30.75 5.0625 C-33.38150958 5.05748483 -36.01302007 5.05292195 -38.64453125 5.04882812 C-45.09637383 5.03780089 -51.5481828 5.02106408 -58 5 C-58.33 4.01 -58.66 3.02 -59 2 C-39.53 2 -20.06 2 0 2 C0 1.34 0 0.68 0 0 Z " fill="#3D1B19" transform="translate(237,146)"/>
<path d="M0 0 C0.66 0 1.32 0 2 0 C2 4.62 2 9.24 2 14 C13.22 13.67 24.44 13.34 36 13 C36.33 10.03 36.66 7.06 37 4 C39 8 39 8 39 16 C26.13 16 13.26 16 0 16 C0 10.72 0 5.44 0 0 Z " fill="#4696B3" transform="translate(437,86)"/>
<path d="M0 0 C12.87 0 25.74 0 39 0 C38.37661357 5.6104779 37.84107959 10.25330763 36.4375 15.5625 C36.16808594 16.59503906 35.89867187 17.62757813 35.62109375 18.69140625 C35.41613281 19.45324219 35.21117187 20.21507812 35 21 C34.67 21 34.34 21 34 21 C33.95745644 19.00045254 33.95919217 16.99958364 34 15 C34.33 14.67 34.66 14.34 35 14 C35.66 10.04 36.32 6.08 37 2 C25.78 2.33 14.56 2.66 3 3 C2.34 4.65 1.68 6.3 1 8 C0.67 8 0.34 8 0 8 C0 5.36 0 2.72 0 0 Z " fill="#54A3BF" transform="translate(437,117)"/>
<path d="M0 0 C5.28 0 10.56 0 16 0 C16 5.28 16 10.56 16 16 C10.72 16 5.44 16 0 16 C0 10.72 0 5.44 0 0 Z M2 1 C2 4.63 2 8.26 2 12 C3.32 12 4.64 12 6 12 C6.33 12.66 6.66 13.32 7 14 C9.31 14 11.62 14 14 14 C14 9.71 14 5.42 14 1 C10.04 1 6.08 1 2 1 Z " fill="#DAC076" transform="translate(289,414)"/>
<path d="M0 0 C0.33 0 0.66 0 1 0 C1 1.98 1 3.96 1 6 C20.305 6.495 20.305 6.495 40 7 C40 5.02 40 3.04 40 1 C42 4 42 4 43 9 C27.49 9 11.98 9 -4 9 C-3.34 7.68 -2.68 6.36 -2 5 C-1.34 5 -0.68 5 0 5 C0 3.35 0 1.7 0 0 Z " fill="#529EB8" transform="translate(371,46)"/>
<path d="M0 0 C17.16 0 34.32 0 52 0 C50.02 4.29 48.04 8.58 46 13 C45.67 13 45.34 13 45 13 C45 11.02 45 9.04 45 7 C45.66 7 46.32 7 47 7 C47 5.02 47 3.04 47 1 C32.48 1.33 17.96 1.66 3 2 C3.33 3.65 3.66 5.3 4 7 C4.66 7 5.32 7 6 7 C6.33 9.64 6.66 12.28 7 15 C4.80992208 12.80992208 3.76163377 10.82360408 2.375 8.0625 C1.92898437 7.18722656 1.48296875 6.31195313 1.0234375 5.41015625 C0 3 0 3 0 0 Z " fill="#D06B58" transform="translate(29,164)"/>
<path d="M0 0 C5.28 0 10.56 0 16 0 C16 5.28 16 10.56 16 16 C10.72 16 5.44 16 0 16 C0 10.72 0 5.44 0 0 Z M2 1 C2 5.29 2 9.58 2 14 C5.96 14 9.92 14 14 14 C14.0309375 11.0609375 14.0309375 11.0609375 14.0625 8.0625 C14.07410156 6.96035156 14.08570313 5.85820312 14.09765625 4.72265625 C14.31262571 2.08552366 14.31262571 2.08552366 13 1 C9.3308423 0.85689713 5.67284559 0.95778338 2 1 Z " fill="#D0B76F" transform="translate(351,414)"/>
<path d="M0 0 C13.53 0 27.06 0 41 0 C42.32 2.64 43.64 5.28 45 8 C44.67 8.66 44.34 9.32 44 10 C43.34 9.67 42.68 9.34 42 9 C41.26924352 6.6859378 40.59861742 4.35171131 40 2 C39.03698975 2.00523682 38.07397949 2.01047363 37.08178711 2.01586914 C33.48300112 2.03407308 29.88421914 2.04548791 26.28540039 2.05493164 C24.73265904 2.05993684 23.17992234 2.06674301 21.62719727 2.07543945 C19.38556768 2.08767307 17.14400082 2.09326657 14.90234375 2.09765625 C13.87378517 2.10539818 13.87378517 2.10539818 12.82444763 2.11329651 C8.43608179 2.1137986 4.31598155 1.70910669 0 1 C0 0.67 0 0.34 0 0 Z " fill="#57A3B6" transform="translate(256,148)"/>
<path d="M0 0 C0.66 0.33 1.32 0.66 2 1 C1.81824219 1.62003906 1.63648438 2.24007812 1.44921875 2.87890625 C-0.83146146 10.91391807 -2.34549032 18.72745162 -4 27 C8.54 27 21.08 27 34 27 C34 27.33 34 27.66 34 28 C21.13 28 8.26 28 -5 28 C-5 15 -5 15 -3 11 C-1.89442125 7.35809353 -0.88821158 3.70088157 0 0 Z " fill="#2B6980" transform="translate(310,74)"/>
<path d="M0 0 C15.84 0 31.68 0 48 0 C47 8 47 8 45 12 C45 8.37 45 4.74 45 1 C30.81 1 16.62 1 2 1 C1.67 1.99 1.34 2.98 1 4 C0.34 4 -0.32 4 -1 4 C-0.67 2.68 -0.34 1.36 0 0 Z " fill="#E58879" transform="translate(52,86)"/>
<path d="M0 0 C15.51 0 31.02 0 47 0 C47 0.33 47 0.66 47 1 C32.48 1.33 17.96 1.66 3 2 C3.33 7.28 3.66 12.56 4 18 C2.3502238 14.7004476 1.55082348 12.51857306 0.875 9 C0.70742187 8.154375 0.53984375 7.30875 0.3671875 6.4375 C0 4 0 4 0 0 Z " fill="#E78A7A" transform="translate(166,86)"/>
<path d="M0 0 C10.56 0 21.12 0 32 0 C31.67 0.99 31.34 1.98 31 3 C21.43 3 11.86 3 2 3 C1.67 3.99 1.34 4.98 1 6 C0.67 4.02 0.34 2.04 0 0 Z " fill="#4FA1C0" transform="translate(435,70)"/>
<path d="M0 0 C1.16208095 3.66502454 0.61909135 6.02477281 -0.52734375 9.70703125 C-1.23553636 12.75244715 -1.23553636 12.75244715 -1 19 C10.22 19.33 21.44 19.66 33 20 C33 20.33 33 20.66 33 21 C20.79 21 8.58 21 -4 21 C-4 15.2244788 -3.62357698 11.88986197 -2 6.5625 C-1.62875 5.32628906 -1.2575 4.09007813 -0.875 2.81640625 C-0.58625 1.88699219 -0.2975 0.95757812 0 0 Z " fill="#5AB8D7" transform="translate(310,80)"/>
<path d="M0 0 C15.51 0 31.02 0 47 0 C46.67 0.99 46.34 1.98 46 3 C46 2.34 46 1.68 46 1 C31.81 1.33 17.62 1.66 3 2 C3.66 3.98 4.32 5.96 5 8 C4.625 10.375 4.625 10.375 4 12 C3.3291288 10.3767313 2.66342971 8.75132422 2 7.125 C1.62875 6.22007813 1.2575 5.31515625 0.875 4.3828125 C0 2 0 2 0 0 Z " fill="#A6AAAD" transform="translate(243,117)"/>
<path d="M0 0 C2.04119788 1.61594832 4.04072937 3.2856382 6 5 C6 5.66 6 6.32 6 7 C-2.58 7 -11.16 7 -20 7 C-20 5.68 -20 4.36 -20 3 C-19.01 3.495 -19.01 3.495 -18 4 C-16.55151418 4.08342159 -15.09929131 4.10732861 -13.6484375 4.09765625 C-12.79765625 4.09443359 -11.946875 4.09121094 -11.0703125 4.08789062 C-10.18085938 4.07951172 -9.29140625 4.07113281 -8.375 4.0625 C-7.02921875 4.05573242 -7.02921875 4.05573242 -5.65625 4.04882812 C-3.43743352 4.03702591 -1.21874982 4.02056155 1 4 C0.67 2.68 0.34 1.36 0 0 Z " fill="#529DB7" transform="translate(450,48)"/>
<path d="M0 0 C0 0.66 0 1.32 0 2 C-10.23 2 -20.46 2 -31 2 C-31 1.34 -31 0.68 -31 0 C-26.90682137 -0.16754147 -22.81343505 -0.32810824 -18.71972656 -0.48217773 C-17.32674778 -0.53559149 -15.93384107 -0.59092043 -14.54101562 -0.64819336 C-12.54056398 -0.73012069 -10.5398125 -0.80462098 -8.5390625 -0.87890625 C-6.73236084 -0.94960327 -6.73236084 -0.94960327 -4.88916016 -1.02172852 C-2 -1 -2 -1 0 0 Z " fill="#0D2D3A" transform="translate(195,225)"/>
<path d="M0 0 C15.51 0 31.02 0 47 0 C46.34 2.31 45.68 4.62 45 7 C44.34 7 43.68 7 43 7 C43.33 5.02 43.66 3.04 44 1 C30.14 1 16.28 1 2 1 C1.67 1.99 1.34 2.98 1 4 C0.67 2.68 0.34 1.36 0 0 Z " fill="#59A9C5" transform="translate(367,164)"/>
<path d="M0 0 C17.16 0 34.32 0 52 0 C51.34 1.65 50.68 3.3 50 5 C49.505 3.02 49.505 3.02 49 1 C42.48524942 1.09212871 35.9708766 1.19941507 29.45654297 1.31738281 C27.2391531 1.35573134 25.02169976 1.39057371 22.80419922 1.421875 C19.62183911 1.46739826 16.43991818 1.52541319 13.2578125 1.5859375 C12.26194122 1.59748871 11.26606995 1.60903992 10.24002075 1.62094116 C9.31921722 1.64081085 8.3984137 1.66068054 7.44970703 1.68115234 C6.23059128 1.70113785 6.23059128 1.70113785 4.98684692 1.7215271 C2.76959942 1.82899081 2.76959942 1.82899081 1 4 C0.67 2.68 0.34 1.36 0 0 Z " fill="#E2C77E" transform="translate(107,164)"/>
<path d="M0 0 C0.99 0.33 1.98 0.66 3 1 C4.61024513 1.11471012 6.22455855 1.1762774 7.83862305 1.20532227 C9.30980843 1.2352401 9.30980843 1.2352401 10.81071472 1.26576233 C11.86704605 1.28247482 12.92337738 1.29918732 14.01171875 1.31640625 C15.09508011 1.33718735 16.17844147 1.35796844 17.29463196 1.37937927 C20.75885616 1.44481797 24.2231568 1.50373353 27.6875 1.5625 C30.03451315 1.60569061 32.38151853 1.64930507 34.72851562 1.69335938 C40.48559604 1.80049357 46.24275267 1.90227064 52 2 C52 2.33 52 2.66 52 3 C36.16 3 20.32 3 4 3 C3.34 4.32 2.68 5.64 2 7 C2 5.68 2 4.36 2 3 C1.34 3 0.68 3 0 3 C0 2.01 0 1.02 0 0 Z " fill="#220302" transform="translate(48,83)"/>
<path d="M0 0 C8.25 0 16.5 0 25 0 C22.47857827 4.20236954 20.88613694 6.25678145 17.3125 9.3125 C16.50425781 10.00988281 15.69601562 10.70726562 14.86328125 11.42578125 C14.24839844 11.94527344 13.63351562 12.46476563 13 13 C12.67 12.01 12.34 11.02 12 10 C13.32 9.34 14.64 8.68 16 8 C16 7.34 16 6.68 16 6 C16.99 6 17.98 6 19 6 C19 5.34 19 4.68 19 4 C19.66 4 20.32 4 21 4 C21 3.34 21 2.68 21 2 C14.07 1.67 7.14 1.34 0 1 C0 0.67 0 0.34 0 0 Z " fill="#58ACC8" transform="translate(431,164)"/>
<path d="M0 0 C1.80078125 0.85546875 1.80078125 0.85546875 2.80078125 2.85546875 C0.49078125 3.18546875 -1.81921875 3.51546875 -4.19921875 3.85546875 C-4.52921875 5.17546875 -4.85921875 6.49546875 -5.19921875 7.85546875 C-6.18921875 7.85546875 -7.17921875 7.85546875 -8.19921875 7.85546875 C-7.86921875 9.50546875 -7.53921875 11.15546875 -7.19921875 12.85546875 C-6.20921875 12.85546875 -5.21921875 12.85546875 -4.19921875 12.85546875 C-4.19921875 14.50546875 -4.19921875 16.15546875 -4.19921875 17.85546875 C-6.50921875 15.87546875 -8.81921875 13.89546875 -11.19921875 11.85546875 C-10.15170124 7.66539871 -9.32156973 6.52137967 -6.38671875 3.54296875 C-5.35611328 2.46595703 -5.35611328 2.46595703 -4.3046875 1.3671875 C-2.19921875 -0.14453125 -2.19921875 -0.14453125 0 0 Z " fill="#2B0D0A" transform="translate(264.19921875,292.14453125)"/>
<path d="M0 0 C2.01913623 2.01913623 2.63545044 3.19868979 3.625 5.8125 C3.88539063 6.47894531 4.14578125 7.14539062 4.4140625 7.83203125 C5 10 5 10 5 15 C13.58 15 22.16 15 31 15 C31.33 14.34 31.66 13.68 32 13 C32 13.99 32 14.98 32 16 C22.76 16 13.52 16 4 16 C3.34 13.69 2.68 11.38 2 9 C1.01 8.34 0.02 7.68 -1 7 C-0.67 4.69 -0.34 2.38 0 0 Z " fill="#010D17" transform="translate(425,40)"/>
<path d="M0 0 C0 3.62453269 -0.92469613 5.07920195 -3 8 C-3.99 8.33 -4.98 8.66 -6 9 C-6.268125 9.598125 -6.53625 10.19625 -6.8125 10.8125 C-8.53549232 13.98643322 -10.90959398 15.2340537 -14 17 C-14.99 17 -15.98 17 -17 17 C-11.39 11.39 -5.78 5.78 0 0 Z " fill="#C26A5D" transform="translate(325,271)"/>
<path d="M0 0 C-1.07401108 2.91517292 -1.77810176 4.77810176 -4 7 C-4 6.01 -4 5.02 -4 4 C-5.32 4 -6.64 4 -8 4 C-8 4.99 -8 5.98 -8 7 C-8.66 7 -9.32 7 -10 7 C-10.33 7.66 -10.66 8.32 -11 9 C-12.32 9 -13.64 9 -15 9 C-15.66 9.66 -16.32 10.32 -17 11 C-17.66 10.34 -18.32 9.68 -19 9 C-16.70870707 7.68684387 -14.4169845 6.37444807 -12.125 5.0625 C-11.47402344 4.68931641 -10.82304687 4.31613281 -10.15234375 3.93164062 C-3.2808277 0 -3.2808277 0 0 0 Z " fill="#4FA7C1" transform="translate(361,29)"/>
<path d="M0 0 C8.58 0 17.16 0 26 0 C26.99 2.97 27.98 5.94 29 9 C27 8 27 8 25 2 C18.07 1.67 11.14 1.34 4 1 C4.33 2.65 4.66 4.3 5 6 C3.31237149 4.3545622 1.6459651 2.68711423 0 1 C0 0.67 0 0.34 0 0 Z " fill="#4E99B3" transform="translate(325,164)"/>
<path d="M0 0 C1.5 1.3125 1.5 1.3125 3 3 C3 3.99 3 4.98 3 6 C4.32 6.33 5.64 6.66 7 7 C5.5437455 7.67119549 4.08492133 8.33681807 2.625 9 C1.40683594 9.556875 1.40683594 9.556875 0.1640625 10.125 C-2 11 -2 11 -4 11 C-3.52269162 9.5410574 -3.04308958 8.08286504 -2.5625 6.625 C-2.29566406 5.81289062 -2.02882813 5.00078125 -1.75390625 4.1640625 C-1 2 -1 2 0 0 Z " fill="#52AECC" transform="translate(425,178)"/>
<path d="M0 0 C5.26159459 -0.64165788 7.68592849 0.79422999 11.6796875 3.90625 C12.11539062 4.2671875 12.55109375 4.628125 13 5 C9.36576791 7.32590854 6.22911669 7.16265833 2 7 C2 6.34 2 5.68 2 5 C2.99 4.67 3.98 4.34 5 4 C5.33 3.34 5.66 2.68 6 2 C3.69 2 1.38 2 -1 2 C-0.67 1.34 -0.34 0.68 0 0 Z " fill="#4FBDDC" transform="translate(387,23)"/>
<path d="M0 0 C8.58 0 17.16 0 26 0 C26 0.33 26 0.66 26 1 C18.41 1.33 10.82 1.66 3 2 C2.34 3.65 1.68 5.3 1 7 C0.01 7.33 -0.98 7.66 -2 8 C-1.34 5.36 -0.68 2.72 0 0 Z " fill="#55B2D4" transform="translate(313,71)"/>
<path d="M0 0 C0.33 0.66 0.66 1.32 1 2 C1.99 2.33 2.98 2.66 4 3 C4.33 4.65 4.66 6.3 5 8 C4.0925 7.154375 3.185 6.30875 2.25 5.4375 C-0.0972369 3.41046826 -0.0972369 3.41046826 -3.0625 2.9375 C-5.63326096 4.34727214 -7.78248103 6.09046978 -10 8 C-10 6.02 -10 4.04 -10 2 C-3.375 0 -3.375 0 0 0 Z " fill="#EC8270" transform="translate(325,251)"/>
<path d="M0 0 C0.33 0.99 0.66 1.98 1 3 C-3.75 7.875 -3.75 7.875 -6 9 C-6.33 9.99 -6.66 10.98 -7 12 C-12.25714286 16 -12.25714286 16 -16 16 C-10.72 10.72 -5.44 5.44 0 0 Z " fill="#3C1813" transform="translate(310,264)"/>
<path d="M0 0 C0.66 0 1.32 0 2 0 C2 0.66 2 1.32 2 2 C2.99 1.67 3.98 1.34 5 1 C7.59227518 5.86051596 7.18689553 10.65271133 7 16 C5.1290051 13.19350765 3.76982048 10.50039527 2.375 7.4375 C1.92898438 6.46683594 1.48296875 5.49617188 1.0234375 4.49609375 C0 2 0 2 0 0 Z " fill="#51B5D3" transform="translate(423,34)"/>
<path d="M0 0 C1.19894445 3.59683336 0.74361288 4.10428569 -0.875 7.375 C-2.12871448 10.00651674 -3.01109713 12.0579517 -3.5625 14.9375 C-4 17 -4 17 -7 19 C-7.66 19.99 -8.32 20.98 -9 22 C-9 18.27757792 -8.87805079 17.26399348 -7.28515625 14.1796875 C-6.92873047 13.47972656 -6.57230469 12.77976563 -6.20507812 12.05859375 C-5.82802734 11.33800781 -5.45097656 10.61742187 -5.0625 9.875 C-4.68931641 9.14667969 -4.31613281 8.41835937 -3.93164062 7.66796875 C-3.24067368 6.32089446 -2.54643517 4.97548974 -1.84790039 3.63232422 C-1.22170309 2.42680877 -0.60751799 1.21503599 0 0 Z " fill="#6CC0D6" transform="translate(254,165)"/>
<path d="M0 0 C10.89 0 21.78 0 33 0 C33 0.33 33 0.66 33 1 C17.655 1.495 17.655 1.495 2 2 C1.67 2.66 1.34 3.32 1 4 C0.34 4 -0.32 4 -1 4 C-0.67 2.68 -0.34 1.36 0 0 Z " fill="#FCD476" transform="translate(110,165)"/>
<path d="M0 0 C2.475 0.99 2.475 0.99 5 2 C3 4 3 4 -0.16455078 4.13525391 C-1.50851258 4.09292823 -2.85214734 4.0392693 -4.1953125 3.9765625 C-5.25647781 3.93902359 -5.25647781 3.93902359 -6.33908081 3.90072632 C-8.60153719 3.8184671 -10.86312806 3.7219031 -13.125 3.625 C-14.65751658 3.56676631 -16.19006881 3.5094629 -17.72265625 3.453125 C-21.4822698 3.31288005 -25.241169 3.15980243 -29 3 C-29 2.67 -29 2.34 -29 2 C-19.43 2 -9.86 2 0 2 C0 1.34 0 0.68 0 0 Z " fill="#00070E" transform="translate(464,67)"/>
<path d="M0 0 C0.33 0.99 0.66 1.98 1 3 C-4.14285714 7.42857143 -4.14285714 7.42857143 -8 8 C-8 7.34 -8 6.68 -8 6 C-10.31 6 -12.62 6 -15 6 C-15.33 5.01 -15.66 4.02 -16 3 C-15.41992188 3.10699219 -14.83984375 3.21398437 -14.2421875 3.32421875 C-8.8625908 4.14980042 -5.74381992 4.08348295 -1 1 C-0.67 0.67 -0.34 0.34 0 0 Z " fill="#0A2231" transform="translate(400,190)"/>
<path d="M0 0 C0.66 0.33 1.32 0.66 2 1 C1.81824219 1.65484375 1.63648438 2.3096875 1.44921875 2.984375 C-0.47327042 9.96448954 -2.27005995 16.9698181 -4 24 C-4.33 24 -4.66 24 -5 24 C-5.05447047 22.58376784 -5.09300508 21.16691809 -5.125 19.75 C-5.14820313 18.96109375 -5.17140625 18.1721875 -5.1953125 17.359375 C-4.97979873 14.75596866 -4.24977459 13.26896347 -3 11 C-1.89442125 7.35809353 -0.88821158 3.70088157 0 0 Z " fill="#153E4D" transform="translate(310,74)"/>
<path d="M0 0 C0.55171875 0.26683594 1.1034375 0.53367188 1.671875 0.80859375 C0.681875 1.13859375 -0.308125 1.46859375 -1.328125 1.80859375 C-1.575625 2.38609375 -1.823125 2.96359375 -2.078125 3.55859375 C-3.98412761 6.98939846 -7.09045648 8.69631803 -10.328125 10.80859375 C-10.988125 10.47859375 -11.648125 10.14859375 -12.328125 9.80859375 C-10.7605732 8.10642395 -9.17352716 6.42218821 -7.578125 4.74609375 C-6.69640625 3.80636719 -5.8146875 2.86664063 -4.90625 1.8984375 C-2.328125 -0.19140625 -2.328125 -0.19140625 0 0 Z " fill="#290C09" transform="translate(323.328125,253.19140625)"/>
<path d="M0 0 C1.98 0 3.96 0 6 0 C5.49855469 0.33644531 4.99710938 0.67289062 4.48046875 1.01953125 C2.20749808 4.06015429 2.93411337 7.1011984 3.3125 10.6875 C3.37373047 11.38939453 3.43496094 12.09128906 3.49804688 12.81445312 C3.65102624 14.5442967 3.82362602 16.27238497 4 18 C2.36427347 15.03095016 1.51349012 12.32420253 0.875 9 C0.70742187 8.154375 0.53984375 7.30875 0.3671875 6.4375 C0 4 0 4 0 0 Z " fill="#D77D6F" transform="translate(166,86)"/>
<path d="M0 0 C0.33 0.66 0.66 1.32 1 2 C-0.04541151 3.49129308 -1.11208814 4.96769402 -2.1875 6.4375 C-2.77917969 7.26121094 -3.37085938 8.08492188 -3.98046875 8.93359375 C-6.31932973 11.32674163 -7.7220036 11.68861865 -11 12 C-7.49102731 7.81576108 -3.91939465 3.80411834 0 0 Z " fill="#C87062" transform="translate(293,303)"/>
<path d="M0 0 C0.66 0 1.32 0 2 0 C2.33 2.31 2.66 4.62 3 7 C3.99 7 4.98 7 6 7 C6 7.99 6 8.98 6 10 C4.25 9.875 4.25 9.875 2 9 C-0.25 5.9375 -0.25 5.9375 -2 3 C-1.34 3 -0.68 3 0 3 C0 2.01 0 1.02 0 0 Z " fill="#E47A6A" transform="translate(269,291)"/>
<path d="M0 0 C0 3.72527067 -0.65114231 5.12075508 -3 8 C-6.6875 8.8125 -6.6875 8.8125 -10 9 C-10.33 7.68 -10.66 6.36 -11 5 C-10.01 5.495 -10.01 5.495 -9 6 C-9 6.66 -9 7.32 -9 8 C-8.01 8 -7.02 8 -6 8 C-5.7525 7.4225 -5.505 6.845 -5.25 6.25 C-3.83316683 3.6997003 -2.12372463 1.98214299 0 0 Z " fill="#C06B5E" transform="translate(281,315)"/>
<path d="M0 0 C0.33 0 0.66 0 1 0 C0.67 4.95 0.34 9.9 0 15 C-0.99 15 -1.98 15 -3 15 C-2.5547115 9.72684667 -1.91626837 4.98229776 0 0 Z " fill="#E3D3A2" transform="translate(107,132)"/>
<path d="M0 0 C1.0828125 1.11375 1.0828125 1.11375 2.1875 2.25 C4.89539371 5.00408972 4.89539371 5.00408972 7.75 7.125 C10 9 10 9 11 12 C10.34 12 9.68 12 9 12 C9 11.34 9 10.68 9 10 C6.06279492 8.47700477 3.0831351 7.19899698 0 6 C0 4.02 0 2.04 0 0 Z " fill="#D67568" transform="translate(254,304)"/>
<path d="M0 0 C1.32 0.66 2.64 1.32 4 2 C0.7 4.64 -2.6 7.28 -6 10 C-6.66 9.67 -7.32 9.34 -8 9 C-5.36 6.03 -2.72 3.06 0 0 Z " fill="#03111C" transform="translate(456,164)"/>
<path d="M0 0 C2.9684965 1.37823052 5.63560751 2.71713829 8 5 C8.75 8.1875 8.75 8.1875 9 11 C5.74251349 7.83299923 2.72824638 4.63766184 0 1 C0 0.67 0 0.34 0 0 Z " fill="#50AAC6" transform="translate(375,182)"/>
<path d="M0 0 C0.99 0 1.98 0 3 0 C2.45660208 4.56454251 1.20536179 7.9728176 -1 12 C-1.33 12 -1.66 12 -2 12 C-2 10.02 -2 8.04 -2 6 C-1.34 6 -0.68 6 0 6 C0 4.02 0 2.04 0 0 Z " fill="#E36C5A" transform="translate(76,165)"/>
<path d="M0 0 C0.33 0 0.66 0 1 0 C1.22084624 6.09781001 1.01167675 11.21642935 -1 17 C-1.66 17 -2.32 17 -3 17 C-2.01 11.39 -1.02 5.78 0 0 Z " fill="#0E2737" transform="translate(476,117)"/>
<path d="M0 0 C2.6855594 2.6855594 3.06049974 5.37621328 4 9 C3.34 9 2.68 9 2 9 C-0.36214538 6.35153397 -1.87172132 4.38483604 -3 1 C-2.01 0.67 -1.02 0.34 0 0 Z " fill="#DC7A68" transform="translate(213,86)"/>
<path d="M0 0 C1.65 0 3.3 0 5 0 C4.01 1.485 4.01 1.485 3 3 C3.33 3.66 3.66 4.32 4 5 C4.1875 8.5 4.1875 8.5 4 12 C3.34 12.66 2.68 13.32 2 14 C0.95576281 10.60622914 1 7.53170169 1 4 C0.56058477 1.73433657 0.56058477 1.73433657 0 0 Z " fill="#6DC3D8" transform="translate(256,149)"/>
<path d="M0 0 C0.66 0 1.32 0 2 0 C4.3992233 4.64849515 4.19957409 8.91086074 4 14 C1.90284215 10.85426323 1.47995441 8.98543749 0.875 5.3125 C0.70742187 4.31863281 0.53984375 3.32476562 0.3671875 2.30078125 C0.24601563 1.54152344 0.12484375 0.78226562 0 0 Z " fill="#E0816F" transform="translate(171,112)"/>
<path d="M0 0 C-1.07401108 2.91517292 -1.77810176 4.77810176 -4 7 C-4 6.01 -4 5.02 -4 4 C-5.65 4 -7.3 4 -9 4 C-3.7826087 0 -3.7826087 0 0 0 Z " fill="#4991A9" transform="translate(361,29)"/>
<path d="M0 0 C2.34914492 2.34914492 2.73140357 3.95679446 3.625 7.125 C3.88539063 8.03507812 4.14578125 8.94515625 4.4140625 9.8828125 C4.70410156 10.93082031 4.70410156 10.93082031 5 12 C4.38125 11.360625 3.7625 10.72125 3.125 10.0625 C1.17402388 7.96116416 1.17402388 7.96116416 -1 7 C-0.67 4.69 -0.34 2.38 0 0 Z " fill="#0B2B38" transform="translate(425,40)"/>
<path d="M0 0 C1.32 0.33 2.64 0.66 4 1 C2.63016497 4.16115776 2.0109362 4.9927092 -1 7 C-1.625 5.1875 -1.625 5.1875 -2 3 C-1.34 2.01 -0.68 1.02 0 0 Z " fill="#EC7F72" transform="translate(256,292)"/>
<path d="M0 0 C2 1 2 1 3 3 C1.35 3.66 -0.3 4.32 -2 5 C-2 5.99 -2 6.98 -2 8 C-2.66 7.67 -3.32 7.34 -4 7 C-4 4 -4 4 -2 1.8125 C-1.34 1.214375 -0.68 0.61625 0 0 Z " fill="#50ACC9" transform="translate(384,25)"/>
<path d="M0 0 C3.93774177 -0.36630156 5.56539771 -0.30233203 8.875 2 C9.926875 2.99 9.926875 2.99 11 4 C9.68 4 8.36 4 7 4 C7 3.34 7 2.68 7 2 C4.36 2 1.72 2 -1 2 C-0.67 1.34 -0.34 0.68 0 0 Z " fill="#498EAA" transform="translate(387,23)"/>
<path d="M0 0 C1.485 0.99 1.485 0.99 3 2 C2.814375 2.5775 2.62875 3.155 2.4375 3.75 C1.95976454 6.20692525 2.24270636 7.64397534 3 10 C2.01 9.67 1.02 9.34 0 9 C-1.125 2.25 -1.125 2.25 0 0 Z " fill="#E6806E" transform="translate(252,298)"/>
<path d="M0 0 C2.15377564 2.62198774 3.40072174 4.64404172 4 8 C1.97954558 7.39816251 -0.02111039 6.72693904 -2 6 C-2.33 5.34 -2.66 4.68 -3 4 C-2.01 4 -1.02 4 0 4 C0 2.68 0 1.36 0 0 Z " fill="#4A90AC" transform="translate(357,182)"/>
<path d="M0 0 C2 4 2 4 2 8 C0.35 8.33 -1.3 8.66 -3 9 C-2.01 6.03 -1.02 3.06 0 0 Z " fill="#4BA3C2" transform="translate(425,178)"/>
<path d="M0 0 C5.4611399 0.35233161 5.4611399 0.35233161 8 1 C9.5 3.0625 9.5 3.0625 10 5 C6.05140217 4.4359146 3.29120954 3.2568294 0 1 C0 0.67 0 0.34 0 0 Z " fill="#489CB6" transform="translate(344,181)"/>
<path d="M0 0 C1.45606519 4.52092968 0.27032841 7.51648796 -1 12 C-1.33 12 -1.66 12 -2 12 C-2 8.37 -2 4.74 -2 1 C-1.34 0.67 -0.68 0.34 0 0 Z " fill="#B8645A" transform="translate(99,86)"/>
<path d="M0 0 C5.53846154 0.61538462 5.53846154 0.61538462 7.875 2.5625 C8.431875 3.2740625 8.431875 3.2740625 9 4 C8.67 4.99 8.34 5.98 8 7 C6.66382648 6.02471263 5.3311249 5.04466681 4 4.0625 C3.2575 3.51722656 2.515 2.97195312 1.75 2.41015625 C1.1725 1.94480469 0.595 1.47945312 0 1 C0 0.67 0 0.34 0 0 Z " fill="#061F2C" transform="translate(440,39)"/>
<path d="M0 0 C0.66 0.66 1.32 1.32 2 2 C-1.63 3.98 -5.26 5.96 -9 8 C-8 4 -8 4 -6.15234375 2.734375 C-5.42144531 2.40953125 -4.69054687 2.0846875 -3.9375 1.75 C-2.83728516 1.24726563 -2.83728516 1.24726563 -1.71484375 0.734375 C-1.14894531 0.49203125 -0.58304687 0.2496875 0 0 Z " fill="#03121C" transform="translate(352,30)"/>
<path d="M0 0 C0.99 0 1.98 0 3 0 C3.33 0.66 3.66 1.32 4 2 C4.99 2.33 5.98 2.66 7 3 C7.33 4.65 7.66 6.3 8 8 C6.66102417 7.04956626 5.32894573 6.08940853 4 5.125 C3.2575 4.59132812 2.515 4.05765625 1.75 3.5078125 C1.1725 3.01023438 0.595 2.51265625 0 2 C0 1.34 0 0.68 0 0 Z " fill="#DF7B6D" transform="translate(322,251)"/>
<path d="M0 0 C0.66 0 1.32 0 2 0 C1.67 3.3 1.34 6.6 1 10 C0.34 9.34 -0.32 8.68 -1 8 C-0.96712417 5.27130593 -0.43602229 2.7033382 0 0 Z " fill="#C67061" transform="translate(94,104)"/>
<path d="M0 0 C4.455 2.97 4.455 2.97 9 6 C8.01 6.33 7.02 6.66 6 7 C2.8125 4.6875 2.8125 4.6875 0 2 C0 1.34 0 0.68 0 0 Z " fill="#031420" transform="translate(336,176)"/>
<path d="M0 0 C2.15377564 2.62198774 3.40072174 4.64404172 4 8 C3.01 8.33 2.02 8.66 1 9 C0.29925156 5.846632 0 3.27275026 0 0 Z " fill="#C6695D" transform="translate(217,96)"/>
<path d="M0 0 C0 3 0 3 -2.5 5.6875 C-3.325 6.450625 -4.15 7.21375 -5 8 C-5.66 7.67 -6.32 7.34 -7 7 C-4.69 4.69 -2.38 2.38 0 0 Z " fill="#441C16" transform="translate(318,256)"/>
<path d="M0 0 C2.97 0.99 5.94 1.98 9 3 C9 3.33 9 3.66 9 4 C3.375 4.25 3.375 4.25 0 2 C0 1.34 0 0.68 0 0 Z " fill="#68C0D5" transform="translate(346,201)"/>
<path d="M0 0 C0.99 0.33 1.98 0.66 3 1 C3 1.66 3 2.32 3 3 C1.03852126 4.38938077 -0.96166576 5.7260411 -3 7 C-1.125 1.125 -1.125 1.125 0 0 Z " fill="#BCBDC0" transform="translate(171,175)"/>
<path d="M0 0 C0.33 0.99 0.66 1.98 1 3 C0.01 3.66 -0.98 4.32 -2 5 C-2.33 5.99 -2.66 6.98 -3 8 C-3.99 7.67 -4.98 7.34 -6 7 C-4.02 4.69 -2.04 2.38 0 0 Z " fill="#50A6BF" transform="translate(333,45)"/>
<path d="M0 0 C0.33 0.66 0.66 1.32 1 2 C-0.75 4.0625 -0.75 4.0625 -3 6 C-4.32 5.67 -5.64 5.34 -7 5 C-4.69 3.35 -2.38 1.7 0 0 Z " fill="#56B1CF" transform="translate(341,39)"/>
<path d="M0 0 C1.9375 0.375 1.9375 0.375 4 1 C4.33 1.66 4.66 2.32 5 3 C2.36 3.33 -0.28 3.66 -3 4 C-2.01 2.68 -1.02 1.36 0 0 Z " fill="#3A160F" transform="translate(262,292)"/>
<path d="M0 0 C1.24675325 4.98701299 1.24675325 4.98701299 0 8 C-0.99 8.33 -1.98 8.66 -3 9 C-2.01 6.03 -1.02 3.06 0 0 Z " fill="#CE7563" transform="translate(38,120)"/>
<path d="M0 0 C0.66 0 1.32 0 2 0 C2.33 2.97 2.66 5.94 3 9 C0 6 0 6 -0.1875 2.8125 C-0.125625 1.884375 -0.06375 0.95625 0 0 Z " fill="#D5C997" transform="translate(151,99)"/>
<path d="M0 0 C0.66 0.33 1.32 0.66 2 1 C1.01 3.97 0.02 6.94 -1 10 C-1.33 10 -1.66 10 -2 10 C-2.22036864 6.14354879 -1.60355101 3.50776784 0 0 Z " fill="#113142" transform="translate(310,74)"/>
<path d="M0 0 C3.14737182 0.69941596 6.02588876 1.76078698 9 3 C6.53721199 4.231394 4.7204945 4.07159196 2 4 C1.34 2.68 0.68 1.36 0 0 Z " fill="#498BA3" transform="translate(420,29)"/>
</svg>
